<svg xmlns="http://www.w3.org/2000/svg" xmlns:xlink="http://www.w3.org/1999/xlink" version="1.1" x="0px" y="0px" viewBox="0 0 100 100" enable-background="new 0 0 100 100" xml:space="preserve"><path d="M15.388,35.637c0.951,0.364,2.016-0.12,2.376-1.076c0.366-0.961-0.116-2.027-1.076-2.389  c-0.945-0.36-2.015,0.127-2.372,1.079C13.956,34.211,14.429,35.277,15.388,35.637z"/><path d="M15.002,26.856c0.646,0.24,1.361-0.083,1.603-0.724c0.245-0.634-0.079-1.353-0.726-1.601  c-0.638-0.232-1.351,0.089-1.596,0.726C14.047,25.896,14.366,26.61,15.002,26.856z"/><path d="M19.672,38.48c-0.616-0.229-1.275,0.041-1.601,0.586h2.257C20.18,38.813,19.965,38.596,19.672,38.48z"/><path d="M21.727,26.805c1.072-0.4,1.61-1.592,1.202-2.664c-0.395-1.07-1.592-1.6-2.664-1.204c-1.066,0.406-1.597,1.594-1.202,2.667  C19.473,26.675,20.66,27.206,21.727,26.805z"/><path d="M17.826,21.442c0.528-0.199,0.806-0.8,0.599-1.333c-0.203-0.532-0.794-0.806-1.33-0.6c-0.537,0.203-0.799,0.794-0.603,1.33  C16.692,21.377,17.292,21.637,17.826,21.442z"/><path d="M22.114,31.226c-0.806,0.297-1.2,1.188-0.906,1.982c0.306,0.797,1.2,1.203,1.987,0.901c0.805-0.306,1.196-1.193,0.903-1.987  C23.795,31.323,22.902,30.93,22.114,31.226z"/><path d="M76.833,35.637c0.951,0.364,2.015-0.12,2.376-1.076c0.365-0.962-0.116-2.027-1.076-2.389  c-0.946-0.36-2.015,0.127-2.372,1.079C75.401,34.21,75.873,35.276,76.833,35.637z"/><path d="M76.448,26.856c0.646,0.24,1.359-0.083,1.602-0.724c0.245-0.634-0.079-1.352-0.726-1.601  c-0.639-0.232-1.351,0.089-1.596,0.726C75.492,25.896,75.813,26.61,76.448,26.856z"/><path d="M81.116,38.48c-0.615-0.229-1.274,0.041-1.6,0.586h2.257C81.625,38.813,81.409,38.596,81.116,38.48z"/><path d="M83.172,26.805c1.071-0.4,1.609-1.592,1.202-2.664c-0.396-1.07-1.593-1.599-2.664-1.203  c-1.066,0.406-1.597,1.593-1.203,2.666C80.918,26.675,82.105,27.206,83.172,26.805z"/><path d="M79.271,21.442c0.529-0.198,0.806-0.8,0.601-1.332c-0.204-0.532-0.796-0.807-1.332-0.601  c-0.537,0.203-0.798,0.795-0.602,1.33C78.138,21.377,78.738,21.638,79.271,21.442z"/><path d="M83.56,31.226c-0.806,0.297-1.201,1.188-0.906,1.982c0.306,0.796,1.199,1.203,1.987,0.901  c0.803-0.307,1.196-1.193,0.903-1.988C85.239,31.323,84.348,30.93,83.56,31.226z"/><path d="M5.404,12.003c0.039,0.022,3.822,2.314,3.77,8.513V78.34c0,6.794,3.966,11.184,10.104,11.184s10.104-4.39,10.104-11.184  V20.509c-0.053-6.14,3.617-8.415,3.77-8.506c0.318-0.188,0.473-0.565,0.376-0.922c-0.097-0.357-0.421-0.604-0.791-0.604H5.819  c-0.37,0-0.694,0.247-0.791,0.604C4.933,11.438,5.086,11.815,5.404,12.003z M30.579,12.115c-1.31,1.49-2.873,4.161-2.836,8.4V78.34  c0,5.888-3.244,9.545-8.466,9.545s-8.466-3.657-8.466-9.545V20.522c0.037-4.244-1.525-6.916-2.836-8.407H30.579z"/><path d="M19.277,86.135c4.268,0,6.716-2.841,6.716-7.795V39.066h-5.665c0.199,0.338,0.268,0.747,0.122,1.14  c-0.267,0.686-1.038,1.03-1.721,0.78c-0.694-0.271-1.044-1.041-0.78-1.727c0.028-0.074,0.083-0.128,0.122-0.193h-5.51V78.34  C12.562,83.294,15.01,86.135,19.277,86.135z M23.514,53.938c-0.222,0.572-0.858,0.867-1.431,0.646  c-0.582-0.219-0.862-0.855-0.652-1.433c0.216-0.578,0.864-0.858,1.435-0.648C23.44,52.717,23.737,53.364,23.514,53.938z M20.9,44.37  c0.391-1.033,1.533-1.55,2.56-1.16c1.03,0.395,1.543,1.534,1.155,2.572c-0.386,1.02-1.537,1.541-2.555,1.156  C21.022,46.553,20.51,45.398,20.9,44.37z M14.156,50.976c0.445-1.145,1.719-1.728,2.865-1.295c1.154,0.442,1.738,1.719,1.298,2.867  c-0.427,1.147-1.718,1.735-2.866,1.296C14.305,53.413,13.731,52.126,14.156,50.976z"/><path d="M46.11,35.637c0.952,0.363,2.016-0.12,2.376-1.076c0.365-0.962-0.116-2.027-1.076-2.389  c-0.945-0.36-2.014,0.127-2.372,1.079C44.679,34.21,45.15,35.276,46.11,35.637z"/><path d="M45.726,26.856c0.646,0.24,1.36-0.083,1.602-0.724c0.245-0.634-0.079-1.352-0.726-1.601  c-0.639-0.232-1.351,0.089-1.596,0.726C44.771,25.896,45.09,26.61,45.726,26.856z"/><path d="M50.394,38.48c-0.615-0.229-1.274,0.041-1.6,0.586h2.257C50.902,38.813,50.688,38.596,50.394,38.48z"/><path d="M52.449,26.805c1.071-0.4,1.608-1.592,1.201-2.664c-0.395-1.07-1.591-1.599-2.663-1.203  c-1.066,0.406-1.597,1.593-1.202,2.666C50.195,26.675,51.383,27.206,52.449,26.805z"/><path d="M48.548,21.442c0.529-0.198,0.806-0.8,0.601-1.332c-0.204-0.532-0.796-0.807-1.331-0.601  c-0.537,0.203-0.799,0.795-0.603,1.33C47.415,21.377,48.016,21.638,48.548,21.442z"/><path d="M52.837,31.226c-0.806,0.297-1.2,1.188-0.906,1.982c0.306,0.796,1.199,1.202,1.987,0.901  c0.804-0.307,1.195-1.193,0.902-1.988C54.517,31.323,53.625,30.93,52.837,31.226z"/><path d="M50,89.523c6.138,0,10.104-4.39,10.104-11.184V20.509c-0.053-6.14,3.616-8.415,3.77-8.506  c0.318-0.188,0.472-0.565,0.376-0.922c-0.097-0.357-0.421-0.604-0.791-0.604H36.542c-0.37,0-0.694,0.247-0.791,0.604  c-0.096,0.356,0.058,0.734,0.376,0.922c0.039,0.022,3.822,2.314,3.77,8.513V78.34C39.896,85.134,43.862,89.523,50,89.523z   M38.698,12.115h22.604c-1.31,1.49-2.873,4.161-2.836,8.4V78.34c0,5.888-3.244,9.545-8.466,9.545s-8.466-3.657-8.466-9.545V20.522  C41.571,16.278,40.008,13.606,38.698,12.115z"/><path d="M50,86.135c4.268,0,6.716-2.841,6.716-7.795V39.066h-5.665c0.199,0.338,0.268,0.747,0.122,1.14  c-0.267,0.686-1.038,1.03-1.721,0.78c-0.694-0.271-1.044-1.041-0.78-1.727c0.028-0.074,0.083-0.128,0.122-0.193h-5.51V78.34  C43.284,83.294,45.732,86.135,50,86.135z M54.236,53.938c-0.222,0.572-0.858,0.867-1.431,0.646  c-0.582-0.219-0.862-0.855-0.652-1.433c0.216-0.578,0.864-0.858,1.434-0.648C54.163,52.717,54.459,53.364,54.236,53.938z   M51.623,44.37c0.39-1.033,1.533-1.55,2.56-1.16c1.03,0.395,1.543,1.534,1.155,2.572c-0.386,1.02-1.537,1.541-2.555,1.156  C51.745,46.553,51.232,45.398,51.623,44.37z M44.879,50.976c0.444-1.145,1.719-1.728,2.865-1.295  c1.153,0.442,1.738,1.719,1.298,2.867c-0.427,1.147-1.718,1.735-2.866,1.296C45.027,53.413,44.453,52.126,44.879,50.976z"/><path d="M66.474,11.081c-0.097,0.356,0.058,0.734,0.376,0.922c0.039,0.022,3.822,2.314,3.77,8.513V78.34  c0,6.794,3.966,11.184,10.104,11.184s10.104-4.39,10.104-11.184V20.509c-0.053-6.14,3.616-8.415,3.77-8.506  c0.318-0.188,0.472-0.565,0.376-0.922c-0.097-0.357-0.421-0.604-0.791-0.604H67.265C66.895,10.477,66.57,10.724,66.474,11.081z   M92.024,12.115c-1.31,1.49-2.873,4.161-2.836,8.4V78.34c0,5.888-3.244,9.545-8.466,9.545s-8.466-3.657-8.466-9.545V20.522  c0.037-4.244-1.526-6.916-2.836-8.407H92.024z"/><path d="M80.723,86.135c4.268,0,6.716-2.841,6.716-7.795V39.066h-5.665c0.199,0.338,0.268,0.747,0.122,1.14  c-0.267,0.686-1.038,1.03-1.721,0.78c-0.694-0.271-1.044-1.041-0.78-1.727c0.028-0.074,0.083-0.128,0.122-0.193h-5.51V78.34  C74.007,83.294,76.455,86.135,80.723,86.135z M84.959,53.938c-0.222,0.572-0.858,0.867-1.432,0.646  c-0.582-0.219-0.861-0.855-0.651-1.433c0.216-0.578,0.864-0.858,1.434-0.648C84.886,52.717,85.182,53.364,84.959,53.938z   M82.346,44.37c0.39-1.033,1.533-1.55,2.56-1.16c1.029,0.395,1.543,1.534,1.154,2.572c-0.385,1.02-1.537,1.541-2.554,1.156  C82.468,46.553,81.955,45.398,82.346,44.37z M75.602,50.976c0.444-1.145,1.719-1.728,2.865-1.295  c1.153,0.442,1.737,1.719,1.298,2.867c-0.427,1.147-1.719,1.735-2.866,1.296C75.75,53.413,75.176,52.126,75.602,50.976z"/></svg>